<svg width="20" height="21" viewBox="0 0 20 21" fill="none" xmlns="http://www.w3.org/2000/svg">
<g clip-path="url(#clip0_269_90)">
<path d="M14.5835 1.26416C13.6451 1.27876 12.7272 1.5407 11.9224 2.02355C11.1177 2.5064 10.4546 3.19305 10.0001 4.01416C9.54566 3.19305 8.88257 2.5064 8.07783 2.02355C7.27308 1.5407 6.35517 1.27876 5.41679 1.26416C3.92091 1.32915 2.51155 1.98354 1.49661 3.08435C0.481678 4.18517 -0.0563308 5.64293 0.000128002 7.13916C0.000128002 12.785 9.13013 19.3058 9.51846 19.5825L10.0001 19.9233L10.4818 19.5825C10.8701 19.3075 20.0001 12.785 20.0001 7.13916C20.0566 5.64293 19.5186 4.18517 18.5036 3.08435C17.4887 1.98354 16.0793 1.32915 14.5835 1.26416ZM10.0001 17.8717C7.28929 15.8467 1.66679 10.8717 1.66679 7.13916C1.60983 6.08476 1.9721 5.0506 2.6746 4.26224C3.37709 3.47389 4.36282 2.99529 5.41679 2.93083C6.47077 2.99529 7.45649 3.47389 8.15899 4.26224C8.86149 5.0506 9.22376 6.08476 9.16679 7.13916H10.8335C10.7765 6.08476 11.1388 5.0506 11.8413 4.26224C12.5438 3.47389 13.5295 2.99529 14.5835 2.93083C15.6374 2.99529 16.6232 3.47389 17.3257 4.26224C18.0282 5.0506 18.3904 6.08476 18.3335 7.13916C18.3335 10.8733 12.711 15.8467 10.0001 17.8717Z" fill="#66A1E8"/>
</g>
<defs>
<clipPath id="clip0_269_90">
<rect width="20" height="20" fill="white" transform="translate(0 0.5)"/>
</clipPath>
</defs>
</svg>
